<svg xmlns="http://www.w3.org/2000/svg" viewBox="0 0 558.54 321.26"><defs><style>.cls-1{fill:#ccc;}.cls-2,.cls-3{fill:#ffe1c5;}.cls-2,.cls-3,.cls-6{stroke:#534c5f;stroke-width:2px;}.cls-2{stroke-miterlimit:10;}.cls-3,.cls-4,.cls-6{stroke-linecap:round;stroke-linejoin:round;}.cls-4,.cls-6{fill:none;}.cls-4{stroke:#d2a68b;stroke-width:1.69px;}.cls-5{fill:#534c5f;}.cls-7{fill:#edb283;opacity:0.46;}</style></defs><title>Asset 3</title><g id="Layer_2" data-name="Layer 2"><g id="Layer_1-2" data-name="Layer 1"><ellipse class="cls-1" cx="277.84" cy="277.9" rx="263.5" ry="43.37"/><path class="cls-2" d="M417.34,183.94c11.34-4.09,23.68-4.27,35.41-7.06,14.65-3.48,28.7-11.51,36.9-24.14,6.08-9.37,8.59-20.57,10.46-31.59,3.1-18.25,5.72-37.6,4.75-56.14-.77-14.89-3.75-31-15.38-41.43-2-1.84-4.37-3.6-5.35-6.18-1.22-3.2,0-6.95,2.37-9.44S492.1,4,495.37,3a47.75,47.75,0,0,1,36.17,3.52c23.56,12.64,25,36.79,25.82,60.62,1.36,39-5.22,77.74-26.37,111.1-12.86,20.29-32.53,40.62-56.84,46.07-14.29,3.2-29.44-.67-43.57,2.87l-16.25,4.72-9.17-25.17,5.17-22.83Z"/><path class="cls-3" d="M139.26,155c-18.31-20.61-34.65-19.17-58.62-16.16-19.3,2.42-31.91-12.77-51.53-9.18a2.19,2.19,0,0,0-1.82,2.2,44.57,44.57,0,0,0,17.94,34.88,2.19,2.19,0,0,1,.49,3c-4.39,6.66-6.88,14.37-8.65,22.11-.47,2.07-.53,4.22-.84,6.32-.23,1.56-.27,4.32-1.7,5.3a4.12,4.12,0,0,1-2,.52,65.47,65.47,0,0,0-14.07,2.76c-4.19,1.31-8.59,2.6-12.19,5.22C4,213.6-.9,218.37,1.78,221a53.23,53.23,0,0,0,11.52,8.43,35.05,35.05,0,0,0,13,4.57c3.44.39,9.19.15,10.1,1.75a26.52,26.52,0,0,1,1.09,3.29,19.32,19.32,0,0,0,2.55,4.52,43.92,43.92,0,0,0,7.65,7.51,78.61,78.61,0,0,0,38,16.05c14.15,1.9,28.36-.42,41.59-5.54"/><path class="cls-4" d="M127.26,232.56"/><path class="cls-2" d="M127.34,260.94"/><path class="cls-3" d="M138.34,155.94c22.2-16.33,61.4-26.6,87.74-30.71a296.84,296.84,0,0,1,96.79.77c12.44,2.18,24.77,5.19,37.36,6.49,10.75,1.11,20-1,30.51-1.46a202.19,202.19,0,0,1,54.31,4.75c6.74,1.53,13.54,3.46,19.3,7.3,3.7,2.46,7.08,6,7.59,10.45.48,4.18-1.76,8.3-4.85,11.16-4.95,4.59-11.79,6.5-18.43,7.68-12.19,2.16-24.57,2.39-37,1.85v.22a50.68,50.68,0,0,1,7.84,25.91c.28,11.73.23,13.87-4.17,23.31l0,1.28-.26.6a113.21,113.21,0,0,1,58.44,19c2.49,1.68,5,3.56,6.41,6.22a12.54,12.54,0,0,1,1.16,7.47,16.48,16.48,0,0,1-4.8,9.58c-3.21,3.13-7.56,4.8-11.92,5.82-12.12,2.82-24.42.65-36.53,2.47-12.84,1.92-25.7,3.51-38.64,4.54a517.73,517.73,0,0,1-77.76.33c-34.42-2.45-68.5-8.33-102.77-12.35-26.68-3.13-54.53-7.16-81.41-7"/><circle class="cls-5" cx="87.01" cy="179.92" r="6.74" transform="translate(-101.75 245.58) rotate(-83.37)"/><circle class="cls-5" cx="70.6" cy="228.64" r="6.74" transform="translate(-164.65 272.38) rotate(-83.37)"/><path class="cls-6" d="M79.42,244.81s-9.84,20.46-8.91,32.4"/><path class="cls-6" d="M85.76,245.55s-5.56,27.9-2.75,37"/><path class="cls-6" d="M92.61,246.34s-2.12,29.33,5.11,37.89"/><path class="cls-6" d="M105.87,181.07s14.45-40.24,19.15-43"/><path class="cls-6" d="M113,181.89s16.08-34.39,20.36-38"/><path class="cls-6" d="M204.81,153.07c10.52,2.17,20.82,5.26,31.08,8.41,9.56,2.94,20,5,29.22,8.8,3.26,1.35,6.36,3.48,8,6.58s1.63,7.31-.79,9.89a8.42,8.42,0,0,1-4.11,2.51c-16.67,3.9-49.37-5.6-63.82-15.24"/><path class="cls-6" d="M205.65,254.53a213.45,213.45,0,0,0,35.3-5.09c7.44-1.72,24.6-2.16,27.93-10.51a10.42,10.42,0,0,0,.36-5.9c-3-14.83-22.06-12.21-33.06-11.47-12.12.81-22.56,6.74-33.81,11.29"/><path class="cls-6" d="M89.2,226.72a14.23,14.23,0,0,0,9-1.42c3.46-2,5-4.92,3.93-7.82S98.86,213.19,97,211c3.31.92,5.56,1.23,8.45-.41s3.91-5.61,2.92-8.79-3.56-5.66-6.37-7.46"/><path class="cls-7" d="M47.17,157.32l.13.16a2.07,2.07,0,0,0,3.55-.64,17.37,17.37,0,0,1,6.41-8.14,2,2,0,0,0,0-3.31,53.69,53.69,0,0,0-12-6c-4.64-1.8-11.2-2.87-7.49,3.84A106.47,106.47,0,0,0,47.17,157.32Z"/><path class="cls-7" d="M25.55,214a40.72,40.72,0,0,0-5.6,2c-1.48.66-7.37,2.83-4.87,5a24.62,24.62,0,0,0,11.43,5.61,21.72,21.72,0,0,0,6.66.4c2.41-.29.41-3.92.2-5.59a22.23,22.23,0,0,1,.19-6.54c.33-1.87.05-2.82-2.11-2.33C29.48,213,27.5,213.47,25.55,214Z"/></g></g></svg>