<svg xmlns="http://www.w3.org/2000/svg" viewBox="0 0 369.3 462.8"><defs><style>.cls-1{fill:#ccc;}.cls-2,.cls-5{fill:#e4f4f9;}.cls-2,.cls-4,.cls-7{stroke:#534c5f;stroke-width:2px;}.cls-2,.cls-7{stroke-miterlimit:10;}.cls-3{fill:#b3e8f4;}.cls-4,.cls-7{fill:none;}.cls-4{stroke-linecap:round;stroke-linejoin:round;}.cls-6{fill:#f7e130;}</style></defs><title>Asset 5</title><g id="Layer_2" data-name="Layer 2"><g id="Layer_1-2" data-name="Layer 1"><ellipse class="cls-1" cx="169.45" cy="436.83" rx="105" ry="25.98"/><path class="cls-2" d="M231.54,440.14h-160a82.17,82.17,0,0,1,160,0Z"/><path class="cls-3" d="M231.45,440.14l-144-1c7.2-35.12,34.92-58.29,68-58.29S224.26,405,231.45,440.14Z"/><path class="cls-4" d="M317.94,362.85"/><path class="cls-4" d="M286,362.85"/><circle class="cls-5" cx="344.87" cy="158.67" r="23.42"/><path class="cls-6" d="M49.17,145.48a36.5,36.5,0,0,0,69.28,8.33"/><circle class="cls-2" cx="151.54" cy="309.23" r="21.34"/><path class="cls-3" d="M171.45,311.71c0,10.41-9.24,18.12-18,18.85-11,.93-20-8.44-20-18.85s9-18.85,20-18.85S171.45,301.3,171.45,311.71Z"/><circle class="cls-2" cx="342.92" cy="158.71" r="25.37"/><circle class="cls-3" cx="344.68" cy="160.47" r="23.62"/><circle class="cls-2" cx="227.2" cy="98.35" r="19.61"/><circle class="cls-3" cx="228.45" cy="96.96" r="18"/><line class="cls-7" x1="168.6" y1="160.02" x2="1.08" y2="139.89"/><path class="cls-2" d="M127.17,74.17l1.51-14.68L131,36.64a25.5,25.5,0,0,0-22.77-28l-9-.92a25.51,25.51,0,0,0-28,22.77L67.79,64.77"/><path class="cls-3" d="M127.6,75.17l1.35-13.08L131,41.73a22.72,22.72,0,0,0-20.29-24.93l-8-.82A22.73,22.73,0,0,0,77.83,36.26L74.69,66.79"/><line class="cls-4" x1="143.46" y1="329.85" x2="143.46" y2="376.7"/><line class="cls-4" x1="159.61" y1="329.85" x2="159.45" y2="376.85"/><line class="cls-7" x1="172.74" y1="304.05" x2="342.92" y2="184.09"/><line class="cls-7" x1="161.26" y1="289.99" x2="322.95" y2="174.36"/><line class="cls-4" x1="318.68" y1="150.46" x2="242.11" y2="111.5"/><line class="cls-7" x1="329.84" y1="136.97" x2="246.81" y2="98.35"/><line class="cls-7" x1="207.59" y1="98.35" x2="128.67" y2="59.49"/><line class="cls-7" x1="216.26" y1="82.08" x2="131.02" y2="36.63"/><path class="cls-7" d="M230.19,117.73c3.39,15.84,9.57,28.33,31.42,36.94a123.9,123.9,0,0,0,56.33,8.45"/><path class="cls-7" d="M99.29,7.73s33.14-13.38,62-2.42S212,43.75,222.39,78.75c.06.18.1.37.16.55"/><path class="cls-7" d="M53,145.12a32.51,32.51,0,0,0,61.7,7.42"/><circle class="cls-7" cx="342.92" cy="158.71" r="25.37"/><circle class="cls-7" cx="227.2" cy="98.35" r="19.61"/><path class="cls-7" d="M127.17,74.17l1.51-14.68L131,36.64a25.5,25.5,0,0,0-22.77-28l-9-.92a25.51,25.51,0,0,0-28,22.77L67.79,64.77"/><path class="cls-2" d="M169.53,147.37A86,86,0,0,1,168.6,160L1.08,139.89a84.39,84.39,0,0,1,168.45,7.49Z"/><path class="cls-3" d="M169.53,148.23a80.2,80.2,0,0,1-.87,11.79L12.45,141.25a78.7,78.7,0,0,1,157.08,7Z"/><path class="cls-7" d="M169.53,147.37A86,86,0,0,1,168.6,160L1.08,139.89a84.39,84.39,0,0,1,168.45,7.49Z"/><path class="cls-7" d="M231.54,440.14h-160a82.17,82.17,0,0,1,160,0Z"/><circle class="cls-7" cx="151.54" cy="309.23" r="21.34"/></g></g></svg>