<svg xmlns="http://www.w3.org/2000/svg" viewBox="0 0 470.02 299.16"><defs><style>.cls-1{fill:#050505;stroke:#aeaeaf;}.cls-1,.cls-2,.cls-3,.cls-4{stroke-miterlimit:10;}.cls-1,.cls-2,.cls-3{stroke-width:2px;}.cls-2{fill:#fff;}.cls-2,.cls-3{stroke:#534c5f;}.cls-3{fill:#e8e8e8;}.cls-4{fill:#aeaeaf;stroke:#050505;stroke-width:1.54px;}</style></defs><title>Asset 6</title><g id="Layer_2" data-name="Layer 2"><g id="mailchimp"><path class="cls-1" d="M403.37,266.87H66.65c-13.08,0-23.68-11.6-23.68-24.68V23.74C43,10.67,53.57.07,66.65,1.07H403.37C416.45.07,427,10.67,427,23.74V242.19C427,255.26,416.45,266.87,403.37,266.87Z"/><rect class="cls-2" x="65.65" y="31.95" width="338.73" height="213.9"/><path class="cls-3" d="M469,266.24v23.57c0,4.62-4.4,8.35-9.83,8.35H10.83c-5.43,0-9.83-3.73-9.83-8.35V266.24H178.35v5.6c0,2,1.92,3.62,4.28,3.62H287.42c2.33,0,4.23-1.59,4.23-3.59v-5.63Z"/><circle class="cls-4" cx="235.01" cy="18.38" r="3.46"/></g></g></svg>