<svg xmlns="http://www.w3.org/2000/svg" viewBox="0 0 112.12 98.33"><defs><style>.cls-1{fill:#ccc;}.cls-2,.cls-6{fill:#fff;}.cls-3,.cls-9{fill:none;}.cls-3,.cls-5,.cls-6{stroke:#534c5f;stroke-width:2px;}.cls-3,.cls-5{stroke-linecap:round;stroke-linejoin:round;}.cls-4{fill:#efdeee;}.cls-5{fill:#c9b5c8;}.cls-6{stroke-miterlimit:10;}.cls-7{fill:#6d667c;}.cls-8{fill:#4e4a59;}</style></defs><title>Asset 9</title><g id="Layer_2" data-name="Layer 2"><g id="Layer_1-2" data-name="Layer 1"><ellipse class="cls-1" cx="45.5" cy="80.5" rx="45.5" ry="17.82"/><path class="cls-2" d="M107.07,40.49A281.51,281.51,0,0,1,85.81,62.28V54.45l.81-.81.19,6.64a245.64,245.64,0,0,0,18.64-19.11l-5-2.46A32.79,32.79,0,0,0,103.91,34c2.37-4.49-1-10.16-6.34-8.5-1.45.46-5.7,4.36-8.86,7.4L86,31.5l.11,3.89-.3.3V28.12s6.59-9.89,13.93-9.33C110.76,19.62,114.91,31.29,107.07,40.49Z"/><path class="cls-3" d="M86,31.5l.11,3.89-.3.3V28.12s6.59-9.89,13.93-9.33c11,.83,15.17,12.5,7.33,21.7A281.51,281.51,0,0,1,85.81,62.28V54.45l.81-.81.19,6.64a245.64,245.64,0,0,0,18.64-19.11"/><path class="cls-4" d="M105.45,41.17A245.64,245.64,0,0,1,86.81,60.28l-.19-6.64c3.89-3.91,14.82-15,17.29-19.69,2.37-4.49-1-10.16-6.34-8.5-1.92.61-8.76,7.26-11.46,9.94L86,31.5s7-9,13-9.36C108.7,21.56,112.32,33.1,105.45,41.17Z"/><path class="cls-3" d="M85.81,35.69,85,36.5"/><path class="cls-3" d="M86.62,53.64c2.87-2.88,9.57-9.69,13.87-14.93A32.8,32.8,0,0,0,103.91,34c2.37-4.49-1-10.16-6.34-8.5-1.45.46-5.7,4.36-8.86,7.4-1,1-1.94,1.88-2.6,2.54"/><path class="cls-5" d="M85.81,11.6V62.28a24.17,24.17,0,0,1-1.65,8.82A24.48,24.48,0,0,1,61.3,86.79h-29A24.5,24.5,0,0,1,7.81,62.28V11.6Z"/><path class="cls-4" d="M84.81,11.6V62.28C85,80.5,67.5,86.5,63,86.5c-6.5,0-23.69-.71-23.69-.71C27.54,85.79,18,75.81,18,62.28V11.6Z"/><ellipse class="cls-6" cx="46.91" cy="11.6" rx="39" ry="10.6"/><ellipse class="cls-7" cx="46.91" cy="11.6" rx="32.63" ry="6.49"/><path class="cls-8" d="M79.54,11.6c0,2.36-6.32,4.42-15.78,5.56L70.35,7.08C76,8.26,79.54,9.85,79.54,11.6Z"/><path class="cls-9" d="M52.13,18.08,68.69,6.73"/><path class="cls-3" d="M7.81,11.6V62.28A24.5,24.5,0,0,0,32.32,86.79h29A24.48,24.48,0,0,0,84.16,71.1a24.17,24.17,0,0,0,1.65-8.82"/><line class="cls-3" x1="85.81" y1="54.45" x2="85.81" y2="35.69"/><polyline class="cls-3" points="85.81 28.12 85.81 12.37 85.81 11.6"/><line class="cls-9" x1="57.72" y1="5.28" x2="49.82" y2="18.08"/><line class="cls-9" x1="68.17" y1="6.53" x2="52.13" y2="18.08"/><line class="cls-9" x1="70.35" y1="7.08" x2="63.76" y2="17.16"/></g></g></svg>