<svg xmlns="http://www.w3.org/2000/svg" xmlns:xlink="http://www.w3.org/1999/xlink" viewBox="0 0 274.42 311.74"><defs><style>.cls-1,.cls-14,.cls-16,.cls-8{fill:none;}.cls-2{fill:#ccc;}.cls-3{fill:#ddd;}.cls-12,.cls-13,.cls-14,.cls-15,.cls-16,.cls-17,.cls-3,.cls-6,.cls-7,.cls-8{stroke:#534c5f;stroke-miterlimit:10;}.cls-12,.cls-17,.cls-3,.cls-6,.cls-7,.cls-8{stroke-width:2px;}.cls-4{fill:#d1d1d1;}.cls-5{fill:#534c5f;}.cls-6{fill:#fff;}.cls-7{fill:#f2f2f0;}.cls-9{clip-path:url(#clip-path);}.cls-10{fill:#f2f7e7;}.cls-11{fill:#e6efd0;}.cls-12,.cls-13,.cls-15{fill:#d0dda8;}.cls-13,.cls-14{stroke-width:2.4px;}.cls-15,.cls-16{stroke-width:2.69px;}.cls-17{fill:#becc85;}</style><clipPath id="clip-path" transform="translate(0 -11.26)"><path class="cls-1" d="M227,164.08h.65c.07.13.1-.73.1-.58,0,2.25-8.23,2.68-17.94,4.1a332.2,332.2,0,0,1-46,2.89,332.2,332.2,0,0,1-46-2.89c-3.16-.46-6.16-.84-8.77-1.21h0l-5.39-.92h0c-2.31-.51-3.69-1.11-3.69-2,0-.15,0,.71.12.58h1L70,143.38A67.89,67.89,0,0,1,50.1,50.8C52,47.76,54,44.52,56,41L119,0,236,10l39.53,31.11c7.79,6.13,54.71,62-6.55,98.2L227,164.08"/></clipPath></defs><title>Asset 2</title><g id="Layer_2" data-name="Layer 2"><g id="Layer_1-2" data-name="Layer 1"><ellipse class="cls-2" cx="104" cy="294.98" rx="104" ry="16.76"/><path class="cls-3" d="M205.43,302.27h-.14c-1.86,3.37-19.64,6-41.3,6s-39.45-2.65-41.31-6c-22.38-32-36-68.39-36-102.69a115.89,115.89,0,0,1,5.36-35.5h.17a2,2,0,0,0,0,.42c0,6.73,32.09,12.19,71.69,12.19s71.7-5.46,71.7-12.19a2,2,0,0,0,0-.42C249.46,207.49,235.75,258.86,205.43,302.27Z" transform="translate(0 -11.26)"/><path class="cls-3" d="M235.6,164.5c0,6.73-32.1,12.19-71.7,12.19s-71.69-5.46-71.69-12.19a2,2,0,0,1,0-.42h7.89a.74.74,0,0,0-.13.42c0,.84,1.39,1.44,3.69,2h0l5.39.92h0c2.62.37,5.62.74,8.78,1.21a332.76,332.76,0,0,0,46,2.89,332.81,332.81,0,0,0,46-2.89c9.7-1.42,17.93-1.84,17.93-4.1a.9.9,0,0,0-.1-.42h7.87A2,2,0,0,1,235.6,164.5Z" transform="translate(0 -11.26)"/><path class="cls-4" d="M208,299c0,.08-3.06,3.93-3,4-30,11-80.31,3-82,0-22.38-31.76-35.28-68.71-35.28-102.72a114,114,0,0,1,5.36-35.2h8.06a.73.73,0,0,0-.13.42c0,.83,1.39,1.43,3.69,1.93h0l5.39.91h0c2.62.37,5.62.73,8.78,1.2l2.72.38a102.91,102.91,0,0,0-3.16,26C118.51,233,151,291,208,299Z" transform="translate(0 -11.26)"/><path class="cls-3" d="M227.69,164.08" transform="translate(0 -11.26)"/><path class="cls-5" d="M178.9,171.21c-4.89.19-9.92.28-15,.28A343.6,343.6,0,0,1,120.67,169c.42-1.65.89-3.29,1.41-4.9h8.06a.74.74,0,0,0-.13.42c0,.84,1.39,1.44,3.69,2h0l5.39.92h0c2.62.37,5.62.74,8.78,1.21A293.06,293.06,0,0,0,178.9,171.21Z" transform="translate(0 -11.26)"/><path class="cls-6" d="M235.56,164.08c-1.29-6.54-32.88-11.78-71.66-11.78s-70.37,5.23-71.65,11.78a2.26,2.26,0,0,0,0,.42c0,6.73,32.1,12.19,71.69,12.19s71.7-5.46,71.7-12.19A2.26,2.26,0,0,0,235.56,164.08Zm-25.7,4.51a332.2,332.2,0,0,1-46,2.89,332.2,332.2,0,0,1-46-2.89c-3.16-.46-6.16-.84-8.77-1.21h0l-5.39-.92h0c-2.31-.51-3.69-1.11-3.69-2a.76.76,0,0,1,.12-.42H227.69a.9.9,0,0,1,.1.42C227.79,166.76,219.56,167.18,209.86,168.6Z" transform="translate(0 -11.26)"/><path class="cls-6" d="M163.9,176.69c-39.6,0-71.7-5.46-71.7-12.19" transform="translate(0 -11.26)"/><path class="cls-7" d="M209.86,168.6a332.2,332.2,0,0,1-46,2.89,332.2,332.2,0,0,1-46-2.89c-3.16-.46-6.16-.84-8.77-1.21h0l-5.39-.92h0c-2.31-.51-3.69-1.11-3.69-2a.76.76,0,0,1,.12-.42H227.69a.9.9,0,0,1,.1.42C227.79,166.76,219.56,167.18,209.86,168.6Zm25.7-4.52c-1.29-6.54-32.88-11.77-71.66-11.77s-70.36,5.23-71.65,11.77a2,2,0,0,0,0,.42c0,6.73,32.09,12.19,71.69,12.19s71.7-5.46,71.7-12.19A2,2,0,0,0,235.56,164.08Z" transform="translate(0 -11.26)"/><path class="cls-6" d="M109.13,167.38c-2.08-.3-3.92-.59-5.39-.92Z" transform="translate(0 -11.26)"/><path class="cls-8" d="M227.69,164.08" transform="translate(0 -11.26)"/><g class="cls-9"><path class="cls-10" d="M75.57,85.72c1.07,1,2.18,2,3.34,2.93A137.09,137.09,0,0,0,106,106.14l.08,0c9.83,3.93,17.33,4.66,19.8,1.22,3.24-4.48-21.68-33-33.36-44.27,12.19,10.7,41.75,34.17,45.94,30.58,5.28-4.51-1.72-21.53-15.8-39.65a112.3,112.3,0,0,0-7.78-8.27c-.47-.46-.95-.9-1.42-1.34-20.28-18.64-38.39,1.31-42.74-1.21C73.7,47.29,55.29,67.08,75.57,85.72Z" transform="translate(0 -11.26)"/><path class="cls-11" d="M78.91,88.65l.48.45a117.61,117.61,0,0,0,14.08,11A106.47,106.47,0,0,0,106,106.14l.08,0c9.83,3.93,17.33,4.66,19.8,1.22,3.24-4.48-21.68-33-33.36-44.27,12.19,10.7,41.75,34.17,45.94,30.58,5.28-4.51-1.72-21.53-15.8-39.65-1.27-1.64-2.59-3.27-4-4.92-.47-.45-.94-.88-1.4-1.31-.8-.74-1.6-1.42-2.4-2-19.29-15-36.16,3.25-40.34.83C77.5,50.64,59.42,70.14,78.91,88.65Z" transform="translate(0 -11.26)"/><path class="cls-12" d="M106.13,106.18c16.07,7.82,31.87,11.3,38.07,4.55,8.88-9.66-4.78-37.18-21.49-56.68,14.08,18.12,21.08,35.14,15.8,39.65-4.19,3.6-33.76-19.88-45.94-30.58,11.68,11.24,36.6,39.78,33.36,44.27C123.45,110.83,116,110.11,106.13,106.18Z" transform="translate(0 -11.26)"/><path class="cls-8" d="M75.57,85.72c1.07,1,2.18,2,3.34,2.93A137.09,137.09,0,0,0,106,106.14l.08,0c9.83,3.93,17.33,4.66,19.8,1.22,3.24-4.48-21.68-33-33.36-44.27,12.19,10.7,41.75,34.17,45.94,30.58,5.28-4.51-1.72-21.53-15.8-39.65a112.3,112.3,0,0,0-7.78-8.27c-.47-.46-.95-.9-1.42-1.34-20.28-18.64-38.39,1.31-42.74-1.21C73.7,47.29,55.29,67.08,75.57,85.72Z" transform="translate(0 -11.26)"/><path class="cls-10" d="M256.33,85.72c-1.07,1-2.18,2-3.34,2.93a137.09,137.09,0,0,1-27.13,17.49l-.08,0c-9.83,3.93-17.33,4.66-19.8,1.22-3.24-4.48,21.68-33,33.36-44.27C227.16,73.82,197.59,97.3,193.4,93.7c-5.28-4.51,1.72-21.53,15.8-39.65A112.3,112.3,0,0,1,217,45.78c.47-.46.95-.9,1.42-1.34,20.28-18.64,38.39,1.31,42.74-1.21C258.21,47.29,276.61,67.08,256.33,85.72Z" transform="translate(0 -11.26)"/><path class="cls-11" d="M253,88.65l-.48.45a117.61,117.61,0,0,1-14.08,11,106.47,106.47,0,0,1-12.57,6.08l-.08,0c-9.83,3.93-17.33,4.66-19.8,1.22-3.24-4.48,21.68-33,33.36-44.27C227.16,73.82,197.59,97.3,193.4,93.7c-5.28-4.51,1.72-21.53,15.8-39.65,1.27-1.64,2.59-3.27,4-4.92.47-.45.94-.88,1.4-1.31.8-.74,1.6-1.42,2.4-2,19.29-15,36.16,3.25,40.34.83C254.41,50.64,272.49,70.14,253,88.65Z" transform="translate(0 -11.26)"/><path class="cls-12" d="M225.78,106.18c-16.07,7.82-31.87,11.3-38.07,4.55-8.88-9.66,4.78-37.18,21.49-56.68-14.08,18.12-21.08,35.14-15.8,39.65,4.19,3.6,33.76-19.88,45.94-30.58-11.68,11.24-36.6,39.78-33.36,44.27C208.46,110.83,215.95,110.11,225.78,106.18Z" transform="translate(0 -11.26)"/><path class="cls-8" d="M256.33,85.72c-1.07,1-2.18,2-3.34,2.93a137.09,137.09,0,0,1-27.13,17.49l-.08,0c-9.83,3.93-17.33,4.66-19.8,1.22-3.24-4.48,21.68-33,33.36-44.27C227.16,73.82,197.59,97.3,193.4,93.7c-5.28-4.51,1.72-21.53,15.8-39.65A112.3,112.3,0,0,1,217,45.78c.47-.46.95-.9,1.42-1.34,20.28-18.64,38.39,1.31,42.74-1.21C258.21,47.29,276.61,67.08,256.33,85.72Z" transform="translate(0 -11.26)"/><path class="cls-10" d="M229.24,54.51c-.33,1.42-.69,2.85-1.1,4.3a137.09,137.09,0,0,1-12.46,29.78l0,.08C209.76,97.48,204,102.32,200,100.89c-5.21-1.86-.83-39.5,2.44-55.38-4,15.72-15.07,51.81-20.56,51.21C175,96,171.11,78,172.46,55.09a112.3,112.3,0,0,1,1.73-11.22c.13-.64.27-1.28.41-1.9,6.16-26.85,32.39-20.66,34.55-25.19C209,21.78,235.41,27.67,229.24,54.51Z" transform="translate(0 -11.26)"/><path class="cls-11" d="M228.15,58.82c0,.21-.09.43-.14.64a117.61,117.61,0,0,1-5.4,17,106.47,106.47,0,0,1-6.92,12.13l0,.08C209.76,97.48,204,102.32,200,100.89c-5.21-1.86-.83-39.5,2.44-55.38-4,15.72-15.07,51.81-20.56,51.21C175,96,171.11,78,172.46,55.09c.12-2.07.29-4.16.49-6.3.13-.63.27-1.26.41-1.87.24-1.07.52-2.08.83-3,7.39-23.32,31.65-17.79,33.72-22.15C207.79,26.68,233.74,32.52,228.15,58.82Z" transform="translate(0 -11.26)"/><path class="cls-12" d="M215.64,88.67C206.82,104.22,195.77,116,186.83,114,174,111,169.72,80.63,172.46,55.09,171.11,78,175,96,181.89,96.72c5.49.59,16.57-35.5,20.56-51.21C199.18,61.39,194.8,99,200,100.89,204,102.32,209.76,97.48,215.64,88.67Z" transform="translate(0 -11.26)"/><path class="cls-8" d="M229.24,54.51c-.33,1.42-.69,2.85-1.1,4.3a137.09,137.09,0,0,1-12.46,29.78l0,.08C209.76,97.48,204,102.32,200,100.89c-5.21-1.86-.83-39.5,2.44-55.38-4,15.72-15.07,51.81-20.56,51.21C175,96,171.11,78,172.46,55.09a112.3,112.3,0,0,1,1.73-11.22c.13-.64.27-1.28.41-1.9,6.16-26.85,32.39-20.66,34.55-25.19C209,21.78,235.41,27.67,229.24,54.51Z" transform="translate(0 -11.26)"/><path class="cls-10" d="M107.63,53.92c.35,1.41.73,2.84,1.16,4.29a137.09,137.09,0,0,0,12.88,29.6l0,.08c6,8.72,11.84,13.48,15.81,12,5.18-1.94.27-39.5-3.22-55.34,4.21,15.66,15.8,51.59,21.28,50.92,6.89-.83,10.51-18.87,8.83-41.76a112.3,112.3,0,0,0-1.89-11.19c-.14-.64-.29-1.27-.44-1.9-6.54-26.76-32.68-20.2-34.9-24.7C127.38,20.9,101.09,27.17,107.63,53.92Z" transform="translate(0 -11.26)"/><path class="cls-11" d="M108.79,58.21c0,.21.1.42.15.64a117.61,117.61,0,0,0,5.64,16.92,106.47,106.47,0,0,0,7.09,12l0,.08c6,8.72,11.84,13.48,15.81,12,5.18-1.94.27-39.5-3.22-55.34,4.21,15.66,15.8,51.59,21.28,50.92,6.89-.83,10.51-18.87,8.83-41.76-.15-2.06-.35-4.16-.58-6.3-.14-.63-.29-1.25-.44-1.87-.26-1.07-.55-2.07-.87-3-7.72-23.22-31.9-17.34-34-21.67C128.69,25.79,102.82,32,108.79,58.21Z" transform="translate(0 -11.26)"/><path class="cls-12" d="M121.72,87.88c9,15.42,20.26,27.07,29.16,24.9,12.75-3.12,16.64-33.59,13.54-59.08,1.67,22.89-1.94,40.93-8.83,41.76-5.48.67-17.07-35.26-21.28-50.92,3.49,15.83,8.4,53.4,3.22,55.34C133.56,101.36,127.72,96.61,121.72,87.88Z" transform="translate(0 -11.26)"/><path class="cls-8" d="M107.63,53.92c.35,1.41.73,2.84,1.16,4.29a137.09,137.09,0,0,0,12.88,29.6l0,.08c6,8.72,11.84,13.48,15.81,12,5.18-1.94.27-39.5-3.22-55.34,4.21,15.66,15.8,51.59,21.28,50.92,6.89-.83,10.51-18.87,8.83-41.76a112.3,112.3,0,0,0-1.89-11.19c-.14-.64-.29-1.27-.44-1.9-6.54-26.76-32.68-20.2-34.9-24.7C127.38,20.9,101.09,27.17,107.63,53.92Z" transform="translate(0 -11.26)"/><path class="cls-10" d="M262.71,135.8c-1.23,1.23-2.5,2.46-3.84,3.68a164.18,164.18,0,0,1-31.52,22.38l-.09.05c-11.55,5.23-20.48,6.5-23.62,2.52-4.11-5.19,24.16-40.67,37.53-54.75-14,13.45-48.11,43.13-53.32,39.05-6.55-5.11.89-25.85,16.77-48.29a134.49,134.49,0,0,1,8.86-10.31c.54-.57,1.09-1.13,1.62-1.67,23.26-23.39,46-.5,51.07-3.74C262.88,89.73,286,112.42,262.71,135.8Z" transform="translate(0 -11.26)"/><path class="cls-11" d="M258.87,139.48l-.55.57a140.84,140.84,0,0,1-16.25,13.86,127.5,127.5,0,0,1-14.71,8l-.09.05c-11.55,5.23-20.48,6.5-23.62,2.52-4.11-5.19,24.16-40.67,37.53-54.75-14,13.45-48.11,43.13-53.32,39.05-6.55-5.11.89-25.85,16.77-48.29,1.43-2,2.93-4,4.49-6.1.53-.56,1.07-1.11,1.6-1.64.92-.93,1.84-1.78,2.77-2.57,22.27-19,43.44,1.94,48.3-1.17C258.52,93.93,281.2,116.3,258.87,139.48Z" transform="translate(0 -11.26)"/><path class="cls-13" d="M227.26,161.92c-18.8,10.22-37.52,15.23-45.3,7.5-11.15-11.08,3.71-44.73,22.66-69-15.87,22.44-23.32,43.17-16.77,48.29,5.2,4.08,39.31-25.6,53.32-39.05-13.37,14.08-41.64,49.57-37.53,54.75C206.78,168.42,215.71,167.15,227.26,161.92Z" transform="translate(0 -11.26)"/><path class="cls-14" d="M262.71,135.8c-1.23,1.23-2.5,2.46-3.84,3.68a164.18,164.18,0,0,1-31.52,22.38l-.09.05c-11.55,5.23-20.48,6.5-23.62,2.52-4.11-5.19,24.16-40.67,37.53-54.75-14,13.45-48.11,43.13-53.32,39.05-6.55-5.11.89-25.85,16.77-48.29a134.49,134.49,0,0,1,8.86-10.31c.54-.57,1.09-1.13,1.62-1.67,23.26-23.39,46-.5,51.07-3.74C262.88,89.73,286,112.42,262.71,135.8Z" transform="translate(0 -11.26)"/><path class="cls-10" d="M70.63,138.8c1.23,1.23,2.5,2.46,3.84,3.68A164.18,164.18,0,0,0,106,164.87l.09.05c11.55,5.23,20.48,6.5,23.62,2.52,4.11-5.19-24.16-40.67-37.53-54.75,14,13.45,48.11,43.13,53.32,39.05,6.55-5.11-.89-25.85-16.77-48.29a134.49,134.49,0,0,0-8.86-10.31c-.54-.57-1.09-1.13-1.62-1.67C95,68.08,72.24,91,67.17,87.72,70.46,92.73,47.37,115.42,70.63,138.8Z" transform="translate(0 -11.26)"/><path class="cls-11" d="M74.47,142.48,75,143a140.84,140.84,0,0,0,16.25,13.86,127.5,127.5,0,0,0,14.71,8l.09.05c11.55,5.23,20.48,6.5,23.62,2.52,4.11-5.19-24.16-40.67-37.53-54.75,14,13.45,48.11,43.13,53.32,39.05,6.55-5.11-.89-25.85-16.77-48.29-1.43-2-2.93-4-4.49-6.1-.53-.56-1.07-1.11-1.6-1.64-.92-.93-1.84-1.78-2.77-2.57-22.27-19-43.44,1.94-48.3-1.17C74.82,96.93,52.14,119.3,74.47,142.48Z" transform="translate(0 -11.26)"/><path class="cls-13" d="M106.08,164.92c18.8,10.22,37.52,15.23,45.3,7.5,11.15-11.08-3.71-44.73-22.66-69,15.87,22.44,23.32,43.17,16.77,48.29-5.2,4.08-39.31-25.6-53.32-39.05,13.37,14.08,41.64,49.57,37.53,54.75C126.56,171.42,117.63,170.15,106.08,164.92Z" transform="translate(0 -11.26)"/><path class="cls-14" d="M70.63,138.8c1.23,1.23,2.5,2.46,3.84,3.68A164.18,164.18,0,0,0,106,164.87l.09.05c11.55,5.23,20.48,6.5,23.62,2.52,4.11-5.19-24.16-40.67-37.53-54.75,14,13.45,48.11,43.13,53.32,39.05,6.55-5.11-.89-25.85-16.77-48.29a134.49,134.49,0,0,0-8.86-10.31c-.54-.57-1.09-1.13-1.62-1.67C95,68.08,72.24,91,67.17,87.72,70.46,92.73,47.37,115.42,70.63,138.8Z" transform="translate(0 -11.26)"/><path class="cls-10" d="M131.18,83.77c-.05,2-.07,3.94,0,6a184.32,184.32,0,0,0,6.16,43s0,.07,0,.12c4.68,13.45,10.55,21.7,16.22,21.18,7.4-.66,14.42-51.12,15.54-72.89-.12,21.8,2.11,72.51,9.45,73.59,9.23,1.38,20.35-20.72,26.33-51a151,151,0,0,0,1.54-15.19c0-.88.08-1.76.11-2.61,1-37-35.17-37.83-36.45-44.46C168.55,48,132.23,46.75,131.18,83.77Z" transform="translate(0 -11.26)"/><path class="cls-11" d="M131.16,89.74c0,.28,0,.59,0,.89a158.12,158.12,0,0,0,1.29,23.95,143.15,143.15,0,0,0,4.91,18.13s0,.07,0,.12c4.68,13.45,10.55,21.7,16.22,21.18,7.4-.66,14.42-51.12,15.54-72.89-.12,21.8,2.11,72.51,9.45,73.59,9.23,1.38,20.35-20.72,26.33-51,.54-2.73,1-5.51,1.49-8.37,0-.87.07-1.73.1-2.58,0-1.47,0-2.88,0-4.24C204.69,55.67,171.25,54.67,170,48.3,168.5,54.8,132.76,53.63,131.16,89.74Z" transform="translate(0 -11.26)"/><path class="cls-15" d="M137.35,132.81c6.22,23.21,16.62,42.32,28.94,42.67,17.64.5,33.53-37.62,38.6-71.78-6,30.27-17.1,52.37-26.33,51-7.34-1.08-9.57-51.79-9.45-73.59C168,102.87,161,153.33,153.56,154,147.89,154.51,142,146.26,137.35,132.81Z" transform="translate(0 -11.26)"/><path class="cls-16" d="M131.18,83.77c-.05,2-.07,3.94,0,6a184.32,184.32,0,0,0,6.16,43s0,.07,0,.12c4.68,13.45,10.55,21.7,16.22,21.18,7.4-.66,14.42-51.12,15.54-72.89-.12,21.8,2.11,72.51,9.45,73.59,9.23,1.38,20.35-20.72,26.33-51a151,151,0,0,0,1.54-15.19c0-.88.08-1.76.11-2.61,1-37-35.17-37.83-36.45-44.46C168.55,48,132.23,46.75,131.18,83.77Z" transform="translate(0 -11.26)"/><path class="cls-10" d="M225.68,135.15c-.26,1.43-.55,2.88-.89,4.35a137.09,137.09,0,0,1-11,30.34s0,.05,0,.08c-5.45,9.08-11,14.19-15,13-5.29-1.61-2.72-39.41-.22-55.43-3.23,15.89-12.57,52.47-18.08,52.14-6.93-.4-11.66-18.18-11.41-41.13a112.3,112.3,0,0,1,1.19-11.29c.1-.65.21-1.29.32-1.92,4.87-27.11,31.36-22.19,33.3-26.82C203.92,103.42,230.55,108,225.68,135.15Z" transform="translate(0 -11.26)"/><path class="cls-11" d="M224.79,139.5c0,.21-.07.43-.11.65a117.61,117.61,0,0,1-4.58,17.24,106.47,106.47,0,0,1-6.33,12.45s0,.05,0,.08c-5.45,9.08-11,14.19-15,13-5.29-1.61-2.72-39.41-.22-55.43-3.23,15.89-12.57,52.47-18.08,52.14-6.93-.4-11.66-18.18-11.41-41.13,0-2.07.09-4.17.19-6.32.1-.64.21-1.27.32-1.89.19-1.08.42-2.1.68-3.08,6.26-23.65,30.76-19.29,32.62-23.74C202.92,108.38,229.12,113,224.79,139.5Z" transform="translate(0 -11.26)"/><path class="cls-12" d="M213.73,169.92c-8.06,16-18.54,28.28-27.56,26.66-12.92-2.32-18.69-32.49-17.18-58.13-.25,22.95,4.48,40.73,11.41,41.13,5.51.33,14.85-36.25,18.08-52.14-2.5,16-5.07,53.82.22,55.43C202.75,184.11,208.28,179,213.73,169.92Z" transform="translate(0 -11.26)"/><path class="cls-8" d="M225.68,135.15c-.26,1.43-.55,2.88-.89,4.35a137.09,137.09,0,0,1-11,30.34s0,.05,0,.08c-5.45,9.08-11,14.19-15,13-5.29-1.61-2.72-39.41-.22-55.43-3.23,15.89-12.57,52.47-18.08,52.14-6.93-.4-11.66-18.18-11.41-41.13a112.3,112.3,0,0,1,1.19-11.29c.1-.65.21-1.29.32-1.92,4.87-27.11,31.36-22.19,33.3-26.82C203.92,103.42,230.55,108,225.68,135.15Z" transform="translate(0 -11.26)"/><path class="cls-10" d="M111.35,135.15c.26,1.43.55,2.88.89,4.35a137.09,137.09,0,0,0,11,30.34s0,.05,0,.08c5.45,9.08,11,14.19,15,13,5.29-1.61,2.72-39.41.22-55.43,3.23,15.89,12.57,52.47,18.08,52.14,6.93-.4,11.66-18.18,11.41-41.13a112.3,112.3,0,0,0-1.19-11.29c-.1-.65-.21-1.29-.32-1.92-4.87-27.11-31.36-22.19-33.3-26.82C133.11,103.42,106.48,108,111.35,135.15Z" transform="translate(0 -11.26)"/><path class="cls-11" d="M112.24,139.5c0,.21.07.43.11.65a117.61,117.61,0,0,0,4.58,17.24,106.47,106.47,0,0,0,6.33,12.45s0,.05,0,.08c5.45,9.08,11,14.19,15,13,5.29-1.61,2.72-39.41.22-55.43,3.23,15.89,12.57,52.47,18.08,52.14,6.93-.4,11.66-18.18,11.41-41.13,0-2.07-.09-4.17-.19-6.32-.1-.64-.21-1.27-.32-1.89-.19-1.08-.42-2.1-.68-3.08-6.26-23.65-30.76-19.29-32.62-23.74C134.11,108.38,107.91,113,112.24,139.5Z" transform="translate(0 -11.26)"/><path class="cls-17" d="M123.3,169.92c8.06,16,18.54,28.28,27.56,26.66,12.92-2.32,18.69-32.49,17.18-58.13.25,22.95-4.48,40.73-11.41,41.13-5.51.33-14.85-36.25-18.08-52.14,2.5,16,5.07,53.82-.22,55.43C134.28,184.11,128.75,179,123.3,169.92Z" transform="translate(0 -11.26)"/><path class="cls-8" d="M111.35,135.15c.26,1.43.55,2.88.89,4.35a137.09,137.09,0,0,0,11,30.34s0,.05,0,.08c5.45,9.08,11,14.19,15,13,5.29-1.61,2.72-39.41.22-55.43,3.23,15.89,12.57,52.47,18.08,52.14,6.93-.4,11.66-18.18,11.41-41.13a112.3,112.3,0,0,0-1.19-11.29c-.1-.65-.21-1.29-.32-1.92-4.87-27.11-31.36-22.19-33.3-26.82C133.11,103.42,106.48,108,111.35,135.15Z" transform="translate(0 -11.26)"/></g><path class="cls-8" d="M205.43,302.27h-.14c-1.86,3.37-19.64,6-41.3,6s-39.45-2.65-41.31-6c-22.38-32-36-68.39-36-102.69a115.89,115.89,0,0,1,5.36-35.5h.17a2,2,0,0,0,0,.42c0,6.73,32.09,12.19,71.69,12.19s71.7-5.46,71.7-12.19a2,2,0,0,0,0-.42C249.46,207.49,235.75,258.86,205.43,302.27Z" transform="translate(0 -11.26)"/></g></g></svg>